<svg version="1.1" class="clearos-svg clearfoundation app-vendor-clearfoundation app-free app-category-server app-sub-category-messaging" viewBox="0 0 400 400" preserveAspectRatio="xMinYMin" xmlns="http://www.w3.org/2000/svg" xmlns:xlink= "http://www.w3.org/1999/xlink">
<path fill="#AA0707" d="M91.666,184.647"/>
<path fill="#AA0707" d="M123.245,247.805"/>
<path fill="#AA0707" d="M91.666,184.647"/>
<path fill="#AA0707" d="M123.245,247.805"/>
<g>
	<path fill="#686868" d="M245.904,3.327c-55.941,49.033-98.936,26.414-120.311,24.262c0,98.083,0.751,81.262,0.751,115.374
		c0,81.551,68.695,159.336,119.56,180.135c50.856-20.799,119.554-98.584,119.554-180.119c0-34.097,0.781-17.307,0.781-115.39
		C344.833,29.741,301.848,52.358,245.904,3.327z M355.113,144.753c0,74.438-62.719,145.512-109.192,164.542
		c-46.46-19.014-109.193-90.07-109.193-164.542c0-31.163-0.688-15.844-0.688-105.406c19.506,1.94,58.759,22.628,109.864-22.142
		c51.093,44.77,90.354,24.082,109.867,22.142C355.803,128.896,355.113,113.576,355.113,144.753z"/>
	<path fill="#686868" d="M245.904,39.576c-43.282,37.915-76.505,20.398-93.035,18.762c0,75.808,0.569,62.866,0.569,89.241
		c0,19.373,5.056,38.44,13.129,56.091L300.126,63.705C284.869,63.085,266.545,57.647,245.904,39.576z"/>
	<path fill="#686868" d="M192.881,244.854L338.887,91.862c0.031-8.731,0.063-19.631,0.063-33.526
		c-2.004,0.211-4.227,0.642-6.729,1.158L176.678,222.447C181.612,230.43,187.092,237.938,192.881,244.854z"/>
	<path fill="#686868" d="M245.904,286.9c39.324-16.086,92.448-76.252,92.448-139.308c0-13.191,0.203-16.524,0.329-26.038
		L206.801,259.752C219.796,272.225,233.512,281.785,245.904,286.9z"/>
	<path fill="#686868" d="M324.412,379.396l-66.6-42.279c-3.256,1.736-6.416,2.189-9.562,3.535l76.159,47.51L42.705,387.77
		l100.086-62.873L182.73,348.9l36.492-21.893c-27.018-18.309-54.979-40.563-75.558-75.33H33.761v144.996h299.32V267.766
		c-2.832,3.816-5.695,7.572-8.669,11.156V379.396z M42.706,260.236l92.034,59.762l-92.034,58.354V260.236z"/>
</g>
</svg>
